<mxfile host="65bd71144e">
    <diagram name="PÃ¡gina-1" id="Yb9R6IX2nASBlaHERz50">
        <mxGraphModel dx="468" dy="782" grid="1" gridSize="10" guides="1" tooltips="1" connect="1" arrows="1" fold="1" page="1" pageScale="1" pageWidth="3300" pageHeight="4681" math="0" shadow="0">
            <root>
                <mxCell id="0"/>
                <mxCell id="1" parent="0"/>
                <mxCell id="G_S5SEi4j7V5Sxc2ZFu2-5" value="Hardware" style="shape=image;html=1;verticalAlign=top;verticalLabelPosition=bottom;labelBackgroundColor=#ffffff;imageAspect=0;aspect=fixed;image=https://cdn1.iconfinder.com/data/icons/science-technology-outline-24-px/24/Computer_chip_integrated_circuit_memory_chip_microprocessor_processor_chip-128.png;imageBackground=none;" parent="1" vertex="1">
                    <mxGeometry x="1020" y="537" width="90" height="90" as="geometry"/>
                </mxCell>
                <mxCell id="G_S5SEi4j7V5Sxc2ZFu2-16" value="" style="endArrow=classic;startArrow=classic;html=1;rounded=0;entryX=0;entryY=0.5;entryDx=0;entryDy=0;" parent="1" edge="1">
                    <mxGeometry width="50" height="50" relative="1" as="geometry">
                        <mxPoint x="800" y="584.5" as="sourcePoint"/>
                        <mxPoint x="1000" y="584" as="targetPoint"/>
                    </mxGeometry>
                </mxCell>
                <mxCell id="G_S5SEi4j7V5Sxc2ZFu2-17" value="User" style="points=[[0.35,0,0],[0.98,0.51,0],[1,0.71,0],[0.67,1,0],[0,0.795,0],[0,0.65,0]];verticalLabelPosition=bottom;sketch=0;html=1;verticalAlign=top;aspect=fixed;align=center;pointerEvents=1;shape=mxgraph.cisco19.user;fillColor=#005073;strokeColor=none;" parent="1" vertex="1">
                    <mxGeometry x="390" y="539.5" width="85" height="85" as="geometry"/>
                </mxCell>
                <mxCell id="G_S5SEi4j7V5Sxc2ZFu2-18" value="" style="endArrow=classic;startArrow=classic;html=1;rounded=0;" parent="1" edge="1">
                    <mxGeometry width="50" height="50" relative="1" as="geometry">
                        <mxPoint x="512.5" y="584" as="sourcePoint"/>
                        <mxPoint x="672.5" y="584" as="targetPoint"/>
                    </mxGeometry>
                </mxCell>
                <mxCell id="N9R3Z4eiGZP1w40wcKv1-6" value="Server" style="sketch=0;outlineConnect=0;fontColor=#232F3E;gradientColor=none;fillColor=#232F3D;strokeColor=none;dashed=0;verticalLabelPosition=bottom;verticalAlign=top;align=center;html=1;fontSize=12;fontStyle=0;aspect=fixed;pointerEvents=1;shape=mxgraph.aws4.traditional_server;" parent="1" vertex="1">
                    <mxGeometry x="710" y="530" width="60" height="104" as="geometry"/>
                </mxCell>
                <mxCell id="N9R3Z4eiGZP1w40wcKv1-7" value="" style="endArrow=none;html=1;rounded=0;exitX=0;exitY=0;exitDx=0;exitDy=0;" parent="1" source="N9R3Z4eiGZP1w40wcKv1-9" edge="1">
                    <mxGeometry width="50" height="50" relative="1" as="geometry">
                        <mxPoint x="620" y="724" as="sourcePoint"/>
                        <mxPoint x="710" y="634" as="targetPoint"/>
                    </mxGeometry>
                </mxCell>
                <mxCell id="N9R3Z4eiGZP1w40wcKv1-8" value="" style="endArrow=none;html=1;rounded=0;exitX=1;exitY=0;exitDx=0;exitDy=0;" parent="1" source="N9R3Z4eiGZP1w40wcKv1-9" edge="1">
                    <mxGeometry width="50" height="50" relative="1" as="geometry">
                        <mxPoint x="830" y="724" as="sourcePoint"/>
                        <mxPoint x="770" y="634" as="targetPoint"/>
                    </mxGeometry>
                </mxCell>
                <mxCell id="N9R3Z4eiGZP1w40wcKv1-9" value="" style="whiteSpace=wrap;html=1;fillColor=none;labelPosition=center;verticalLabelPosition=top;align=center;verticalAlign=bottom;" parent="1" vertex="1">
                    <mxGeometry x="480" y="724" width="520" height="168" as="geometry"/>
                </mxCell>
                <mxCell id="N9R3Z4eiGZP1w40wcKv1-10" value="Back-End" style="verticalLabelPosition=bottom;html=1;verticalAlign=top;align=center;strokeColor=none;fillColor=#00BEF2;shape=mxgraph.azure.server_rack;" parent="1" vertex="1">
                    <mxGeometry x="715" y="772.98" width="50" height="50" as="geometry"/>
                </mxCell>
                <mxCell id="N9R3Z4eiGZP1w40wcKv1-11" value="Database" style="html=1;verticalLabelPosition=bottom;align=center;labelBackgroundColor=#ffffff;verticalAlign=top;strokeWidth=2;strokeColor=#0089B6;shadow=0;dashed=0;shape=mxgraph.ios7.icons.data;fillColor=none;" parent="1" vertex="1">
                    <mxGeometry x="924" y="769.23" width="47.42" height="57.5" as="geometry"/>
                </mxCell>
                <mxCell id="N9R3Z4eiGZP1w40wcKv1-12" value="&lt;font style=&quot;color: light-dark(rgb(5, 5, 5), transparent);&quot;&gt;Front-End&lt;/font&gt;" style="sketch=0;pointerEvents=1;shadow=0;dashed=0;html=1;strokeColor=none;fillColor=#0089B6;labelPosition=center;verticalLabelPosition=bottom;verticalAlign=top;outlineConnect=0;align=center;shape=mxgraph.office.concepts.web_page;fontColor=#ffffff;" parent="1" vertex="1">
                    <mxGeometry x="512.5" y="770.98" width="50" height="54" as="geometry"/>
                </mxCell>
                <mxCell id="N9R3Z4eiGZP1w40wcKv1-13" value="" style="endArrow=classic;html=1;" parent="1" edge="1">
                    <mxGeometry width="50" height="50" relative="1" as="geometry">
                        <mxPoint x="563.9" y="784" as="sourcePoint"/>
                        <mxPoint x="715" y="784" as="targetPoint"/>
                    </mxGeometry>
                </mxCell>
                <mxCell id="N9R3Z4eiGZP1w40wcKv1-14" value="" style="endArrow=classic;html=1;rounded=0;" parent="1" edge="1">
                    <mxGeometry width="50" height="50" relative="1" as="geometry">
                        <mxPoint x="713.9" y="804" as="sourcePoint"/>
                        <mxPoint x="563.9" y="804" as="targetPoint"/>
                    </mxGeometry>
                </mxCell>
                <mxCell id="N9R3Z4eiGZP1w40wcKv1-15" value="" style="endArrow=classic;html=1;" parent="1" edge="1">
                    <mxGeometry width="50" height="50" relative="1" as="geometry">
                        <mxPoint x="765" y="784" as="sourcePoint"/>
                        <mxPoint x="916.1" y="784" as="targetPoint"/>
                    </mxGeometry>
                </mxCell>
                <mxCell id="N9R3Z4eiGZP1w40wcKv1-16" value="" style="endArrow=classic;html=1;rounded=0;" parent="1" edge="1">
                    <mxGeometry width="50" height="50" relative="1" as="geometry">
                        <mxPoint x="915" y="804" as="sourcePoint"/>
                        <mxPoint x="765" y="804" as="targetPoint"/>
                    </mxGeometry>
                </mxCell>
                <mxCell id="N9R3Z4eiGZP1w40wcKv1-17" value="Authentication&lt;div&gt;Server&lt;/div&gt;" style="sketch=0;outlineConnect=0;fontColor=#232F3E;gradientColor=none;fillColor=#232F3D;strokeColor=none;dashed=0;verticalLabelPosition=bottom;verticalAlign=top;align=center;html=1;fontSize=12;fontStyle=0;aspect=fixed;pointerEvents=1;shape=mxgraph.aws4.traditional_server;" parent="1" vertex="1">
                    <mxGeometry x="710" y="280" width="60" height="104" as="geometry"/>
                </mxCell>
                <mxCell id="N9R3Z4eiGZP1w40wcKv1-18" value="" style="endArrow=classic;startArrow=classic;html=1;rounded=0;" parent="1" edge="1">
                    <mxGeometry width="50" height="50" relative="1" as="geometry">
                        <mxPoint x="740" y="520" as="sourcePoint"/>
                        <mxPoint x="740" y="430" as="targetPoint"/>
                    </mxGeometry>
                </mxCell>
            </root>
        </mxGraphModel>
    </diagram>
</mxfile>